#format: frame checksums
#version: 2
#hash: MD5
#software: Lavf62.3.100
#tb 0: 1/4
#media_type 0: video
#codec_id 0: rawvideo
#dimensions 0: 180x320
#sar 0: 1/1
#stream#, dts,        pts, duration,     size, hash
0,          0,          0,        1,    86400, 47552d7dea9c93d6445c9ef0d1de27ff
0,          1,          1,        1,    86400, ae437d17cb9e9156832702730ad8b22d
0,          2,          2,        1,    86400, 2c669c694a360470c162742cc30523a0
0,          3,          3,        1,    86400, a9b358829eef5f9950a5800403a8f608
0,          4,          4,        1,    86400, 43e84d81bbba523f0211836c15376753
0,          5,          5,        1,    86400, e703650039d4e7b59bfdaef05029b78c
0,          6,          6,        1,    86400, 54e7883c4521bec06335953759405524
0,          7,          7,        1,    86400, a7e7c8626d72993e2fff227cfc8b16d4
